<svg id="Layer_1" data-name="Layer 1" xmlns="http://www.w3.org/2000/svg" viewBox="0 0 83 59.5">
  <title>contact</title>
  <path d="M73.5,4.5H9.5a4,4,0,0,0-4,4v42a4,4,0,0,0,4,4h64a4,4,0,0,0,4-4V8.5A4,4,0,0,0,73.5,4.5Zm0,46H9.5V8.5h64Zm-28-29a.94.94,0,0,1,1-1h20a1,1,0,0,1,0,2h-20A.94.94,0,0,1,45.5,21.5Zm0,8a.94.94,0,0,1,1-1h20a1,1,0,0,1,0,2h-20A.94.94,0,0,1,45.5,29.5Zm0,8a.94.94,0,0,1,1-1h20a1,1,0,0,1,0,2h-20A.94.94,0,0,1,45.5,37.5Zm-26,2h16a.94.94,0,0,0,1-1,8.9,8.9,0,0,0-5.4-8.2,6.11,6.11,0,0,0,2.4-4.8,6,6,0,1,0-9.6,4.8,8.9,8.9,0,0,0-5.4,8.2A.94.94,0,0,0,19.5,39.5Zm4-14a4,4,0,1,1,4,4A4,4,0,0,1,23.5,25.5Zm4,6a7,7,0,0,1,6.9,6H20.6A7,7,0,0,1,27.5,31.5Z"/>
</svg>
