<svg id="Layer_1" data-name="Layer 1" xmlns="http://www.w3.org/2000/svg" viewBox="0 0 81.63 63">
  <defs>
    <style>
      .cls-1 {
        fill: none;
        stroke: #000;
        stroke-width: 2px;
      }
    </style>
  </defs>
  <title>demographics</title>
  <g>
    <path class="cls-1" d="M46.08,34.32a12.53,12.53,0,1,0-10.68,0c-9,2.06-15.71,9.22-15.71,17.73,0,10.12,42.11,10.12,42.11,0C61.8,43.53,55.13,36.38,46.08,34.32Z"/>
    <path class="cls-1" d="M58.81,42.66c9.28.53,19.78-1.47,19.78-6,0-6.81-5.34-12.54-12.57-14.19h0a10,10,0,1,0-8.55,0A18.19,18.19,0,0,0,53.22,24"/>
    <rect x="53.25" y="21.13" width="2" height="2"/>
    <path class="cls-1" d="M22.73,42.66C13.45,43.18,3,41.19,3,36.67c0-6.81,5.34-12.54,12.57-14.19h0a10,10,0,1,1,8.55,0A18.19,18.19,0,0,1,28.32,24"/>
    <rect x="26.25" y="21.13" width="2" height="2"/>
  </g>
</svg>
