<?xml version="1.0" encoding="utf-8"?>
<!-- Generator: Adobe Illustrator 21.1.0, SVG Export Plug-In . SVG Version: 6.00 Build 0)  -->
<svg version="1.1" id="Layer_1" xmlns="http://www.w3.org/2000/svg" xmlns:xlink="http://www.w3.org/1999/xlink" x="0px" y="0px"
	 viewBox="0 0 113 65" style="enable-background:new 0 0 113 65;" xml:space="preserve">
<g>
	<path d="M52.9,52.3v-0.5c0.1-1.6,0.1-3.4-0.6-5.1c-0.8-1.8-2.5-3.2-4-4.3c-0.5-0.4-1-0.7-1.7-1.1l-1.9-1.1
		c-0.5-0.3-1.1-0.6-1.7-0.9L42.4,39c-0.6-0.3-1.2-0.6-1.8-0.9c-0.8-0.4-1.6-0.7-2.3-0.9l-1.1-0.3l-0.5,0.8c-0.4,0.6-4.4,4.4-8.2,7.9
		c-3.8-3.5-7.8-7.3-8.2-7.9l-0.5-0.8l-1.1,0.3c-0.7,0.2-1.4,0.5-2.2,0.9c-0.6,0.3-1.2,0.6-1.8,0.9L14,39.5c-0.2,0.1-0.4,0.2-0.6,0.3
		l-2.1,1.1c-0.9,0.6-1.7,1.1-2.4,1.6c-1.5,1.1-3.2,2.4-4,4.3c-0.7,1.6-0.7,3.4-0.6,5v0.6c0,0.2,0,1.5,0,4.7c0,2,1.6,3.5,3.5,3.5
		h41.5c2,0,3.5-1.6,3.5-3.5C52.8,55.2,52.9,52.5,52.9,52.3z M42.2,48.7c0.5,0.3,0.9,0.7,1.1,1.3s0.1,1.2-0.1,1.7
		c-0.3,0.5-0.7,0.9-1.3,1.1s-1.2,0.1-1.7-0.1c-0.5-0.3-0.9-0.7-1.1-1.3c-0.4-1.2,0.3-2.4,1.4-2.8c0.2-0.1,0.4-0.1,0.7-0.1
		C41.5,48.5,41.9,48.5,42.2,48.7z M50.4,51.8v0.6c0,0.2,0,4.6,0,4.8c0,0.6-0.5,1-1,1H7.9l0,0c-0.6,0-1.1-0.5-1.1-1
		c0-4.6,0-4.8,0-4.8v-0.6c0-1.4-0.1-2.9,0.4-3.9c0.6-1.3,1.9-2.3,3.2-3.3c0.6-0.5,1.4-1,2.2-1.5l0.9-0.5c0.1,0.7,0.3,1.4,0.6,2.1
		c-0.5,0.2-0.9,0.6-1.3,0.9c-0.5,0.5-0.9,1-1.2,1.6c-0.6,1.2-0.7,2.5-0.4,3.8l1.2,5l3.6-0.8c0.7-0.2,1.1-0.8,0.9-1.5
		s-0.8-1.1-1.5-0.9L14.2,53l-0.6-2.5c-0.2-0.7-0.1-1.5,0.2-2.1c0.2-0.3,0.4-0.7,0.7-0.9c0.4-0.4,0.9-0.7,1.5-0.8
		c0.6-0.1,1.1-0.1,1.7,0.1c0.3,0.1,0.5,0.2,0.7,0.3c0.1,0.1,0.2,0.1,0.3,0.2c0.6,0.5,1,1.1,1.1,1.8l0.6,2.5l-1.2,0.3
		c-0.7,0.2-1.1,0.8-0.9,1.5s0.8,1.1,1.5,0.9l3.6-0.8l-1.2-5c-0.3-1.3-1-2.4-2-3.2c-0.2-0.1-0.3-0.3-0.5-0.4
		c-0.4-0.3-0.8-0.5-1.3-0.6c-0.6-0.2-1.3-0.3-2-0.2c-0.3-0.9-0.5-1.7-0.6-2.6v-0.1h0.1c0.6-0.3,1.1-0.6,1.7-0.9
		c0.5-0.2,0.9-0.4,1.4-0.6c1.9,2,7.1,6.8,8.8,8.4l0.8,0.8l0.8-0.8c1.7-1.6,6.9-6.3,8.8-8.4c0.4,0.2,0.9,0.3,1.4,0.6
		c0.6,0.3,1.1,0.5,1.7,0.8l0.6,0.3c0.4,0.2,0.8,0.4,1.2,0.6c-0.3,1.3-0.7,2.6-1.3,3.8c-0.7-0.1-1.4,0-2,0.2
		c-1.2,0.4-2.2,1.2-2.7,2.3s-0.7,2.4-0.3,3.6c0.6,2,2.5,3.3,4.5,3.3c0.5,0,1-0.1,1.4-0.2c1.2-0.4,2.2-1.2,2.7-2.3s0.7-2.4,0.3-3.6
		c-0.3-0.9-0.8-1.7-1.6-2.3c0.5-1.1,0.9-2.3,1.2-3.5c0.5,0.3,1,0.7,1.4,1c1.3,1,2.6,2,3.2,3.3C50.5,48.8,50.4,50.2,50.4,51.8z"/>
	<path d="M15.6,21.8L15.6,21.8c0,0.4,0,0.7,0,1c0,0.4,0.1,0.8,0.1,1.2c0,0.2,0.1,0.4,0.1,0.6c0.2,1.8,1.1,3.2,2.5,3.9l0,0
		c0.8,3.2,2.4,5.6,4.9,7.3c0.3,0.2,0.6,0.4,1,0.6c0.5,0.3,1,0.5,1.7,0.7c0.5,0.2,0.9,0.3,1.4,0.4c0.4,0.1,0.8,0.1,1.2,0.1
		c0.1,0,0.2,0,0.3,0c0.4,0,0.8,0,1.2-0.1c0.5-0.1,0.9-0.2,1.4-0.4h0.1c0.6-0.2,1.2-0.4,1.7-0.7c0.3-0.2,0.7-0.4,1-0.6
		c1.3-0.9,2.4-2.1,3.3-3.4c0.4-0.6,0.7-1.3,1-2.1c0.1-0.3,0.2-0.6,0.3-0.9c0.1-0.3,0.1-0.6,0.3-0.7c0.2-0.2,0.4-0.4,0.6-0.6
		c0.1-0.1,0.3-0.2,0.4-0.4c1.1-1,1.3-2.2,1.5-3.1c0-0.2,0.1-0.4,0.1-0.6c0.1-0.4,0.1-0.8,0.1-1.2c0-0.3,0-0.6,0-0.9l0,0l0,0l0,0l0,0
		l0,0c0.1-1.1-0.5-2.3-1.6-2.8v-0.4c0-0.4,0.1-0.7,0.1-1c0.3-1.1,0.4-2.1,0.5-3.2c0.1-3.6-1.7-6.6-4.9-8c-0.3-0.2-0.7-0.3-1-0.4
		c-1.9-0.7-3.9-1.1-6-1.1c-0.4,0-0.9,0-1.3,0c-1.2,0.1-3,0.2-4.5,0.9c-0.2,0.1-0.3,0.2-0.5,0.3C22,6.5,21.5,7,21.1,7.6l-0.2,0.3
		c-0.2,0.3-0.2,0.3-0.4,0.5c-0.3,0.3-0.6,0.4-0.9,0.6c-0.7,0.3-1.2,0.8-1.5,1.4c-0.5,0.8-0.7,1.9-0.8,3.1c-0.1,1.2,0,2.5,0.1,3.4
		c0,0.5,0.1,0.9,0.2,1.4c0,0.2,0.1,0.5,0.1,0.7C16.2,19.2,15.5,20.5,15.6,21.8z M41.3,21.6L41.3,21.6l-1-0.1L41.3,21.6z M18.2,21.2
		L18.2,21.2c0.2,0,0.3,0,0.4,0s0.2,0,0.3,0h0.2l0.2-0.1c0.5-0.3,0.8-0.8,0.8-1.4c0-0.7-0.1-1.4-0.2-2.1c-0.1-0.3-0.1-0.7-0.2-1
		c-0.1-0.9-0.1-2-0.1-3.1c0-0.9,0.2-1.5,0.5-2c0.1-0.1,0.2-0.2,0.4-0.3c0.5-0.2,0.9-0.5,1.5-0.9c0.5-0.4,0.7-0.8,1-1.1L23.2,9
		c0.2-0.3,0.5-0.6,0.8-0.8c0.1,0,0.1-0.1,0.2-0.1c1-0.5,2.2-0.6,3.5-0.7c0.4,0,0.8,0,1.2,0c1.8,0,3.5,0.3,5.1,0.9
		c0.3,0.1,0.6,0.2,0.9,0.4c2.3,1,3.5,3.1,3.4,5.6c0,0.9-0.2,1.8-0.4,2.7c-0.1,0.5-0.2,1-0.2,1.4l-0.1,0.5c-0.1,0.4-0.2,1,0,1.5
		c0.3,0.6,0.8,0.9,1.5,1c0,0.1,0.1,0.2,0.1,0.3v0.2V22c0,0.2,0,0.5,0,0.7c0,0.3-0.1,0.6-0.1,1c0,0.2-0.1,0.4-0.1,0.6
		c-0.1,0.8-0.3,1.2-0.7,1.6c-0.1,0.1-0.2,0.2-0.3,0.3c-0.3,0.3-0.6,0.5-0.9,0.9c-0.5,0.6-0.6,1.2-0.7,1.7c0,0.2-0.1,0.4-0.2,0.5
		c-0.3,0.7-0.5,1.2-0.9,1.7c-0.7,1.1-1.5,2-2.5,2.7c-0.2,0.2-0.5,0.3-0.7,0.5c-0.4,0.2-0.8,0.4-1.3,0.6c-0.1,0-0.1,0-0.2,0.1
		c-0.3,0.1-0.6,0.2-0.9,0.3s-0.6,0.1-0.9,0.1s-0.6,0-0.8-0.1c-0.3-0.1-0.6-0.1-0.9-0.3L27,34.8c-0.5-0.2-0.9-0.4-1.3-0.5
		c-0.3-0.2-0.5-0.3-0.8-0.5c-1.9-1.3-3.2-3.2-3.8-5.8c-0.2-0.8-0.6-1.2-0.9-1.4L20,26.5c-0.9-0.5-1.2-1.5-1.2-2.1
		c0-0.2-0.1-0.4-0.1-0.6c0-0.3-0.1-0.6-0.1-1c0-0.2,0-0.5,0-0.7v-0.2v-0.1C18.1,21.5,18.1,21.4,18.2,21.2z"/>
</g>
<g>
	<path d="M102.8,42.7c-0.5-0.4-1.1-0.7-1.7-1.1l-1.9-1.1c-0.5-0.3-1.1-0.5-1.7-0.9L97,39.2c-0.5-0.3-1.1-0.6-1.8-0.9
		c-0.8-0.4-1.5-0.7-2.3-0.9c0,0-0.1,0-0.2,0L92,37.2l-0.4,0.7c-0.1,0.2-0.5,0.6-1.1,1.2c-1.8,0.5-5.1,0.9-7.3,0.9
		c-2.1,0-5.3-0.4-7-0.9c-0.6-0.6-1.1-1.1-1.2-1.2l-0.4-0.7l-1.1,0.3c-0.7,0.2-1.4,0.4-2.2,0.9c-0.6,0.3-1.2,0.6-1.8,0.9l-0.7,0.4
		c-0.2,0.1-0.4,0.2-0.5,0.3l-2,1.1c-0.9,0.5-1.8,1.1-2.5,1.6c-1.6,1.1-3.2,2.4-3.9,4.2c-0.7,1.6-0.7,3.4-0.6,5v0.6
		c0,0.2,0,2.1,0,4.7c0,1.8,1.5,3.4,3.4,3.4h41.4c1.8,0,3.4-1.5,3.4-3.4c0-1.9,0-4.6,0-4.7v-0.5c0.1-1.6,0.1-3.4-0.6-5
		C105.9,45.1,104.3,43.8,102.8,42.7z M96.9,48.7c0.5,0.3,1,0.8,1.1,1.4s0.2,1.2-0.2,1.8c-0.3,0.5-0.8,1-1.4,1.1
		c-0.6,0.2-1.2,0.2-1.8-0.2c-0.5-0.3-1-0.8-1.1-1.4c-0.2-0.6-0.2-1.2,0.2-1.8c0.3-0.5,0.8-1,1.4-1.1c0.3-0.1,0.4-0.1,0.7-0.1
		C96.2,48.4,96.5,48.5,96.9,48.7z M83.1,42.2c1.2,0,2.9-0.1,4.4-0.3c-1.3,1.2-2.8,2.6-4.2,3.9c-1.5-1.3-2.9-2.7-4.2-3.9
		C80.4,42.1,81.9,42.2,83.1,42.2z M105.1,51.8v0.5c0,0.1,0,0.8,0,4.8c0,0.7-0.5,1.2-1.2,1.2H62.5c-0.7,0-1.2-0.5-1.2-1.2
		c0-3.1,0-4.7,0-4.8v-0.6c-0.1-1.4-0.1-2.9,0.4-4c0.6-1.3,1.9-2.4,3.2-3.3c0.6-0.5,1.4-1,2.2-1.5l1.1-0.6c0.2,0.8,0.4,1.7,0.6,2.5
		c-0.5,0.4-1,0.6-1.4,1.1c-0.4,0.4-0.9,1-1.1,1.6c-0.5,1.1-0.7,2.5-0.4,3.7l1.1,4.8l3.4-0.8c0.6-0.2,1-0.7,0.8-1.3s-0.7-1-1.3-0.8
		l-1.2,0.3L68,50.5c-0.2-0.8-0.1-1.5,0.3-2.2c0.2-0.4,0.4-0.7,0.7-1c0.4-0.4,1-0.7,1.6-0.9c0.6-0.2,1.2-0.1,1.8,0.1
		c0.3,0.1,0.5,0.2,0.8,0.4c0.1,0.1,0.2,0.1,0.3,0.2c0.6,0.4,1.1,1.1,1.2,1.8l0.6,2.7l-1.3,0.3c-0.6,0.2-1,0.7-0.8,1.3s0.7,1,1.3,0.8
		l3.4-0.8l-1.1-4.8c-0.3-1.2-1-2.4-1.9-3.1c-0.2-0.2-0.4-0.3-0.5-0.4c-0.4-0.3-0.8-0.4-1.3-0.6c-0.6-0.2-1.3-0.3-2-0.3
		c-0.4-0.9-0.5-1.8-0.7-2.7c0-0.1,0-0.1-0.1-0.2l0.2-0.1c0.5-0.3,1.1-0.6,1.8-0.9c0.5-0.3,1-0.4,1.5-0.6c1.8,1.9,7.1,6.8,8.9,8.4
		l0.8,0.8l0.7-0.7c1.8-1.6,7-6.5,8.9-8.4c0.4,0.2,1,0.4,1.5,0.6c0.5,0.3,1.1,0.5,1.7,0.8l0.6,0.4c0.4,0.3,0.9,0.4,1.3,0.7
		c-0.3,1.4-0.7,2.7-1.4,4c-0.7-0.1-1.4-0.1-2,0.2c-1.1,0.4-2.1,1.1-2.6,2.3c-0.5,1.1-0.6,2.3-0.3,3.4c0.4,1.1,1.1,2.1,2.3,2.6
		c0.6,0.4,1.3,0.5,2.1,0.5c0.4,0,1-0.1,1.4-0.2c1.1-0.4,2.1-1.1,2.6-2.3c0.5-1.1,0.6-2.3,0.3-3.4c-0.3-0.9-0.9-1.7-1.6-2.3
		c0.6-1.2,1.1-2.5,1.3-3.8l0.2,0.1c0.5,0.4,1.1,0.7,1.5,1c1.3,1,2.6,2,3.2,3.3C105.2,48.8,105.2,50.3,105.1,51.8z"/>
	<path d="M98.8,21.9c-0.7-1.2-1-2.6-1.3-4.1c-0.2-0.7-0.3-1.4-0.4-2.2C96,11.5,93.6,8.5,90,6.9c-2.4-1.1-5-1.5-8.1-1.2
		c-5.2,0.4-8.9,3-10.9,7.4c-0.4,1.1-0.8,2.2-1.1,3.2c-0.3,1-0.5,1.9-1,2.8c-0.6,1.4-1.4,2.7-2.3,4.1c-0.3,0.4-0.6,0.9-0.9,1.4
		c-0.5,0.9-0.5,1.8,0,2.5c0.8,1.3,1.8,2.5,3.1,3.4c1.3,1.1,2.9,2,4.7,2.7c1.5,0.6,3.1,1.1,4.7,1.3l3,0.5l-2-2.3c0,0-0.8-1-1.4-1.7
		c-1.9-2.6-3-6-2.9-9.5c0-0.2,0-0.6,1.2-0.9l1.8-0.4c1.7-0.4,3.4-0.7,5.1-1.1h0.1c2.1-0.5,4.4-1.1,6.4-2.1c0.1-0.1,0.3-0.2,0.4-0.3
		c0.1-0.1,0.3-0.2,0.4-0.2c0.9,1.8,1.2,4,1.1,6.3s-0.7,4.3-1.8,6.2c-0.4,1-1.1,1.8-1.9,2.8l-2.2,2.8l2.7-0.4
		c1.9-0.4,3.7-0.8,5.3-1.6c1.8-0.8,3.4-1.8,4.7-3.2c0.9-0.9,1.7-1.8,2.3-2.8c0.4-0.8,0.4-1.6,0-2.4l-0.9,0.6l-1,0.6l0,0
		c-0.5,0.9-1.2,1.7-1.9,2.4c-1.1,1.1-2.5,2-4.1,2.7c-0.6,0.3-1.2,0.5-1.9,0.7c0.3-0.4,0.5-0.9,0.8-1.3c1.2-2.2,1.8-4.6,2-7.1
		c0.2-2.7-0.4-5.4-1.4-7.6c-0.4-0.7-0.8-0.9-1.1-1.1c-0.9-0.3-1.6,0.2-2.2,0.5c-0.1,0.1-0.2,0.1-0.3,0.2c-1.8,0.9-3.9,1.4-5.9,1.9
		h-0.1c-1.7,0.4-3.3,0.7-5,1.1l-1.8,0.4c-2.5,0.5-3,2.1-3,3c-0.1,3.7,1,7.2,2.9,10.1c-0.4-0.2-0.9-0.3-1.3-0.4
		c-1.6-0.6-3-1.4-4.1-2.4c-1.1-0.9-1.9-1.8-2.6-2.9c0-0.1-0.1-0.1-0.1-0.1s0-0.1,0.1-0.2c0.3-0.4,0.5-0.9,0.9-1.3
		c0.9-1.4,1.8-2.8,2.5-4.4c0.4-1,0.7-2,1.1-3c0.4-1.1,0.6-2,1.1-3c1.7-3.8,4.6-5.8,9-6.2c2.7-0.3,5,0.1,7,1c3.1,1.4,4.9,3.8,5.9,7.3
		c0.2,0.7,0.3,1.4,0.4,2c0.3,1.6,0.6,3.2,1.6,4.8c0.6,1,1.2,1.9,1.8,2.9l1-0.5l0.9-0.6C100,23.9,99.4,22.9,98.8,21.9z"/>
</g>
</svg>
