<?xml version="1.0" encoding="utf-8"?>
<!-- Generator: Adobe Illustrator 21.1.0, SVG Export Plug-In . SVG Version: 6.00 Build 0)  -->
<svg version="1.1" id="Layer_1" xmlns="http://www.w3.org/2000/svg" xmlns:xlink="http://www.w3.org/1999/xlink" x="0px" y="0px"
	 viewBox="0 0 73.3 65.7" style="enable-background:new 0 0 73.3 65.7;" xml:space="preserve">
<path d="M60.8,35L48,22.2c-0.6-0.6-1.3-0.9-2.1-0.9h-3.2v-2c0-1.7-1.3-3-3-3s-3,1.3-3,3v2h-22c-1.7,0-3,1.3-3,3v22c0,1.7,1.3,3,3,3
	h3.4c0.8,2.3,3,4,5.6,4s4.8-1.7,5.6-4H44c0.8,2.3,3,4,5.6,4c2.6,0,4.8-1.7,5.6-4h3.5c1.7,0,3-1.3,3-3v-9.2
	C61.7,36.3,61.4,35.6,60.8,35z M56.3,33.3H42.7v-6h7.6L56.3,33.3z M38.7,19.3c0-0.6,0.4-1,1-1s1,0.4,1,1v2h-2V19.3z M14.7,23.3h31.2
	c0.3,0,0.5,0.1,0.7,0.3l1.7,1.7h-6.6c-0.6,0-1,0.4-1,1v8c0,0.6,0.4,1,1,1h16.6l1.1,1.1c0.2,0.2,0.3,0.4,0.3,0.7v6.2h-5.5
	c-1.1-1.2-2.7-2-4.5-2s-3.4,0.8-4.5,2h-17c-1.1-1.2-2.7-2-4.5-2s-3.4,0.8-4.5,2h-5.5v-19C13.7,23.7,14.1,23.3,14.7,23.3z M14.7,47.3
	c-0.6,0-1-0.4-1-1v-1h4.4c-0.2,0.6-0.4,1.3-0.4,2H14.7z M23.7,51.3c-2.2,0-4-1.8-4-4s1.8-4,4-4s4,1.8,4,4
	C27.7,49.5,25.9,51.3,23.7,51.3z M29.7,47.3c0-0.7-0.1-1.4-0.4-2H44c-0.2,0.6-0.4,1.3-0.4,2H29.7z M49.7,51.3c-2.2,0-4-1.8-4-4
	s1.8-4,4-4c2.2,0,4,1.8,4,4C53.7,49.5,51.9,51.3,49.7,51.3z M58.7,47.3h-3c0-0.7-0.1-1.4-0.4-2h4.4v1C59.7,46.9,59.3,47.3,58.7,47.3
	z M17.7,35.3h3v3c0,0.6,0.4,1,1,1h4c0.6,0,1-0.4,1-1v-3h3c0.6,0,1-0.4,1-1v-4c0-0.6-0.4-1-1-1h-3v-3c0-0.6-0.4-1-1-1h-4
	c-0.6,0-1,0.4-1,1v3h-3c-0.6,0-1,0.4-1,1v4C16.7,34.9,17.1,35.3,17.7,35.3z M18.7,31.3h3c0.6,0,1-0.4,1-1v-3h2v3c0,0.6,0.4,1,1,1h3
	v2h-3c-0.6,0-1,0.4-1,1v3h-2v-3c0-0.6-0.4-1-1-1h-3V31.3z M38.7,13.3v-3c0-0.6,0.4-1,1-1s1,0.4,1,1v3c0,0.6-0.4,1-1,1
	S38.7,13.9,38.7,13.3z M43.2,15.8c-0.4-0.4-0.4-1,0-1.4l2.1-2.1c0.4-0.4,1-0.4,1.4,0s0.4,1,0,1.4l-2.1,2.1
	C44.2,16.2,43.6,16.3,43.2,15.8z M45.7,18.3h3c0.6,0,1,0.4,1,1s-0.4,1-1,1h-3c-0.6,0-1-0.4-1-1S45.1,18.3,45.7,18.3z M32.6,13.6
	c-0.4-0.4-0.4-1,0-1.4s1-0.4,1.4,0l2.1,2.1c0.4,0.4,0.4,1,0,1.4c-0.4,0.4-1,0.4-1.4,0L32.6,13.6z M29.7,19.3c0-0.6,0.4-1,1-1h3
	c0.6,0,1,0.4,1,1s-0.4,1-1,1h-3C30.1,20.3,29.7,19.9,29.7,19.3z"/>
</svg>
