<svg id="Layer_1" data-name="Layer 1" xmlns="http://www.w3.org/2000/svg" viewBox="0 0 100 100.25">
  <title>finance</title>
  <path d="M83.3,25.1V42.9h.1A7,7,0,0,1,88.1,45a7.12,7.12,0,0,1,2.1,5,6.72,6.72,0,0,1-2.1,5l-8,8-1.4-1.4,8-8a5.31,5.31,0,0,0,0-7.4A5.67,5.67,0,0,0,84.9,45a4.27,4.27,0,0,0-4.7.8L60.9,65.3a7.58,7.58,0,0,0-2.3,5.4V99.4H77.7V81.5C79.2,80.1,90.6,69.7,92,68.4c2.4-2.3,2.6-6.1,2.6-6.9V25c0-2.5-2.5-5.3-6-5.3A5.49,5.49,0,0,0,83.3,25.1Z"/>
  <path d="M18.7,25.1V42.9h-.1A7,7,0,0,0,13.9,45a7.12,7.12,0,0,0-2.1,5,6.72,6.72,0,0,0,2.1,5l8,8,1.4-1.4-8-8a5.31,5.31,0,0,1,0-7.4A5.67,5.67,0,0,1,17.1,45a4.27,4.27,0,0,1,4.7.8L41.2,65.2a7.58,7.58,0,0,1,2.3,5.4V99.3H24.4V81.4C22.9,80,11.5,69.6,10.1,68.3,7.7,66,7.5,62.2,7.5,61.4V24.9c0-2.5,2.5-5.3,6-5.3A5.56,5.56,0,0,1,18.7,25.1Z"/>
  <path d="M69.1,39.1a21.39,21.39,0,0,0,4-12.5A21.55,21.55,0,1,0,51.6,48.1a19.81,19.81,0,0,0,6-.9l-.4-2.1a17.65,17.65,0,0,1-5.6.8A19.5,19.5,0,1,1,71,26.5,19.93,19.93,0,0,1,67.3,38Z"/>
  <path d="M69.9,8.4A25.72,25.72,0,0,0,51.6.8a22.59,22.59,0,0,0-6.9,1l.4,2a23.8,23.8,0,1,1,6.5,46.7A24,24,0,0,1,27.8,26.6a23.6,23.6,0,0,1,4.4-13.8l-1.7-1a25.29,25.29,0,0,0-4.7,14.8,25.8,25.8,0,1,0,51.6,0A25.57,25.57,0,0,0,69.9,8.4Z"/>
  <path d="M59.6,30.7c0-3.5-5-4.4-7-4.6V17c4.3.6,4.9,5.6,4.9,5.8l1-.1,1-.1c-.2-2.5-2-7.2-7-7.7v-3H50.4v3a9.28,9.28,0,0,0-5.5,2.7,6.74,6.74,0,0,0-1.5,5.2c.5,3.8,4.8,4.9,6.9,5.2v7.5c-4.8-1-4.8-4.8-4.8-4.9H43.4c0,.1,0,5.9,6.9,7.1v3.6h2.1V37.9a7.21,7.21,0,0,0,4.8-1.8A6.3,6.3,0,0,0,59.6,30.7ZM45.7,22.6a3.92,3.92,0,0,1,1-3.5,7,7,0,0,1,3.9-2V26C48.8,25.7,45.9,24.9,45.7,22.6Zm6.9,13.2V28.3c2,.2,4.9,1,4.9,2.5A4.9,4.9,0,0,1,56,34.6,5.43,5.43,0,0,1,52.6,35.8Z"/>
</svg>
