<?xml version="1.0" encoding="utf-8"?>
<!-- Generator: Adobe Illustrator 21.1.0, SVG Export Plug-In . SVG Version: 6.00 Build 0)  -->
<svg version="1.1" id="Layer_1" xmlns="http://www.w3.org/2000/svg" xmlns:xlink="http://www.w3.org/1999/xlink" x="0px" y="0px"
	 viewBox="0 0 100 103.2" style="enable-background:new 0 0 100 103.2;" xml:space="preserve">
<path d="M20.1,92.6h59.1c3.6,0,6.5-2.9,6.5-6.5V19c0-3.6-2.9-6.5-6.5-6.5H67.4V10c0-1.9-1.6-3.5-3.5-3.5H35.4
	c-1.9,0-3.5,1.6-3.5,3.5v2.5H20.1c-3.6,0-6.5,2.9-6.5,6.5v67.1C13.7,89.7,16.6,92.6,20.1,92.6z M34.9,14L34.9,14v-4
	c0-0.3,0.2-0.5,0.5-0.5h28.5c0.3,0,0.5,0.2,0.5,0.5c0,0,0,0,0,0v10.5c0,0.3-0.2,0.5-0.5,0.5H35.4c-0.3,0-0.5-0.2-0.5-0.5V14z
	 M35.4,24h35.8c1.9,0,3.5,1.6,3.5,3.5v49.6c0,1.9-1.6,3.5-3.5,3.5h-43c-1.9,0-3.5-1.6-3.5-3.5V27.5c0-1.9,1.6-3.5,3.5-3.5H35.4z
	 M16.6,19c0-1.9,1.6-3.5,3.5-3.5h11.8v5c0,0.2,0,0.3,0.1,0.5h-3.8c-3.6,0-6.5,2.9-6.5,6.5v49.6c0,3.6,2.9,6.5,6.5,6.5h43
	c3.6,0,6.5-2.9,6.5-6.5V27.5c0-3.6-2.9-6.5-6.5-6.5h-3.8c0-0.2,0-0.3,0.1-0.5v-5h11.8c1.9,0,3.5,1.6,3.5,3.5v67.1
	c0,1.9-1.6,3.5-3.5,3.5H20.1c-1.9,0-3.5-1.6-3.5-3.5L16.6,19z"/>
<path d="M36,40.9c3,0,5.4-2.4,5.4-5.4S39,30.1,36,30.1c-3,0-5.4,2.4-5.4,5.4l0,0C30.6,38.5,33,40.9,36,40.9z M36,33.1
	c1.3,0,2.4,1.1,2.4,2.4s-1.1,2.4-2.4,2.4c-1.3,0-2.4-1.1-2.4-2.4l0,0C33.6,34.2,34.7,33.1,36,33.1L36,33.1z"/>
<path d="M47.9,37H67c0.8,0,1.5-0.7,1.5-1.5S67.8,34,67,34H47.9c-0.8,0-1.5,0.7-1.5,1.5S47.1,37,47.9,37z"/>
<path d="M36,57.9c3,0,5.4-2.4,5.4-5.4S39,47.1,36,47.1s-5.4,2.4-5.4,5.4l0,0C30.6,55.5,33,57.9,36,57.9z M36,50.1
	c1.3,0,2.4,1.1,2.4,2.4s-1.1,2.4-2.4,2.4c-1.3,0-2.4-1.1-2.4-2.4l0,0C33.6,51.2,34.7,50.1,36,50.1L36,50.1z"/>
<path d="M47.9,54H67c0.8,0,1.5-0.7,1.5-1.5S67.8,51,67,51H47.9c-0.8,0-1.5,0.7-1.5,1.5S47.1,54,47.9,54z"/>
<path d="M36,74.9c3,0,5.4-2.4,5.4-5.4S39,64.1,36,64.1s-5.4,2.4-5.4,5.4l0,0C30.6,72.5,33,74.9,36,74.9z M36,67.1
	c1.3,0,2.4,1.1,2.4,2.4s-1.1,2.4-2.4,2.4c-1.3,0-2.4-1.1-2.4-2.4l0,0C33.6,68.2,34.7,67.1,36,67.1L36,67.1z"/>
<path d="M47.9,71H67c0.8,0,1.5-0.7,1.5-1.5S67.8,68,67,68H47.9c-0.8,0-1.5,0.7-1.5,1.5S47.1,71,47.9,71z"/>
</svg>
