<?xml version="1.0" encoding="utf-8"?>
<!-- Generator: Adobe Illustrator 21.1.0, SVG Export Plug-In . SVG Version: 6.00 Build 0)  -->
<svg version="1.1" id="Layer_1" xmlns="http://www.w3.org/2000/svg" xmlns:xlink="http://www.w3.org/1999/xlink" x="0px" y="0px"
	 viewBox="0 0 138.5 108.4" style="enable-background:new 0 0 138.5 108.4;" xml:space="preserve">
<style type="text/css">
	.st0{fill:none;stroke:#000000;stroke-width:5;stroke-miterlimit:10;}
</style>
<path d="M81.2,22.6H69.6c-2.2,0-4,1.8-4,4s1.8,4,4,4h11.6c1.1,0,2,0.9,2,2v42.8c0,1.1-0.9,2-2,2H69.6c-2.2,0-4,1.8-4,4s1.8,4,4,4
	h11.6c5.5,0,10-4.5,10-10V32.6C91.2,27.1,86.8,22.6,81.2,22.6z"/>
<path d="M45.2,58h18.2l-6.5,7c-1.5,1.6-1.4,4.2,0.2,5.7c1.6,1.5,4.2,1.4,5.7-0.2l0,0l12.8-13.7c0.1-0.1,0.1-0.2,0.2-0.2
	c0.1-0.1,0.2-0.2,0.2-0.3c0.1-0.1,0.1-0.2,0.2-0.4c0.1-0.1,0.1-0.2,0.2-0.3c0.1-0.1,0.1-0.3,0.1-0.4c0-0.1,0.1-0.2,0.1-0.3
	c0.1-0.2,0.1-0.5,0.1-0.8l0,0c0-0.3,0-0.5-0.1-0.8c0-0.1-0.1-0.2-0.1-0.3c0-0.2-0.1-0.3-0.2-0.5c0-0.1-0.1-0.2-0.2-0.3
	c-0.1-0.1-0.1-0.2-0.2-0.4c-0.1-0.1-0.2-0.2-0.2-0.3c-0.1-0.1-0.1-0.2-0.2-0.2L62.7,37.5c-1.5-1.6-4.1-1.7-5.7-0.2
	c-1.6,1.5-1.7,4.1-0.2,5.7l6.5,7H45.2c-2.2,0-4,1.8-4,4S43,58,45.2,58z"/>
<circle class="st0" cx="70.6" cy="53.3" r="49.8"/>
</svg>
