<svg id="Layer_1" data-name="Layer 1" xmlns="http://www.w3.org/2000/svg" viewBox="0 0 56 54.83">
  <title>noun_557983_cc</title>
  <path d="M3.12,44.68V9a7,7,0,0,1,7-7H45.84a7,7,0,0,1,7,7V44.68a7,7,0,0,1-7,7H10.16A7,7,0,0,1,3.12,44.68ZM29.9,43.9V40.33H28.32l3.26-4.5L35,40.33H33.5V43.9H43.8V40.19H41.32l-5.7-7.38,5.16-7.15h2.37V22H34.76v3.5h1.31l-3,4.09-6-7.68.71-.1q3.8-1.72,3.8-5.46A6.31,6.31,0,0,0,30,12q-1.65-1.89-5.39-1.89H12v3.71h2.34V28.39H12v3.71H22.13V28.39H20.06v-5.9h1.19l2.45,3.18h0l5.35,7-5.35,7.56H21.12V43.9ZM20.06,19V13.86h2.48a3.68,3.68,0,0,1,2.28.63,2.25,2.25,0,0,1,.83,1.91Q25.64,19,22,19Z"/>
</svg>
