<svg id="Layer_1" data-name="Layer 1" xmlns="http://www.w3.org/2000/svg" viewBox="0 0 64 63.38">
  <title>policy</title>
  <g>
    <path d="M15.65,15.06a8.69,8.69,0,0,1,6.69-6.94,8.23,8.23,0,0,1,1.84-.2l2,0v3.76l-.48,0a15.07,15.07,0,0,0-2.11,0,4.66,4.66,0,0,0-4.17,3.44l-.06.19A9.71,9.71,0,0,0,15.65,15.06Z"/>
    <path d="M63.45,16.94q0,14.65,0,29.29v1.56c0,1.92,0,3.91-.11,5.85a8.5,8.5,0,0,1-8.14,7.69c-3.35,0-6.7,0-10,0H31.36c-2.3,0-4.59,0-6.87,0h-.16a8.67,8.67,0,0,1-8.46-6.29s0,0,0-.08l1,.6,2-1.18a1.82,1.82,0,0,0,.27-.17h0l.23-.15a5.08,5.08,0,0,0,5.11,3.59H41.23c4.37,0,8.76,0,13.13,0a5.39,5.39,0,0,0,3.93-1.62,5.06,5.06,0,0,0,1.44-3.71c-.06-2.12,0-4.28,0-6.36,0-.94,0-1.86,0-2.79V16.91a5.07,5.07,0,0,0-3.43-5,8.75,8.75,0,0,0-3.06-.29h-.48l0-.47V7.9H54.4A8.76,8.76,0,0,1,63.45,16.94Z"/>
    <path d="M50.88,11.21c0,.91-.39,1.3-1.3,1.3H29.52c-1.12,0-1.45-.35-1.45-1.49,0-.89,0-2.18,0-3.07a1.1,1.1,0,0,1,1.2-1.21A16.16,16.16,0,0,0,31.8,6.6a4.8,4.8,0,0,0,3.3-2.41c.25-.44.49-.89.75-1.33A2.84,2.84,0,0,1,38.4,1.39c.65,0,1.29,0,1.94,0a3.08,3.08,0,0,1,2.89,1.69,12,12,0,0,0,1.68,2.38,5,5,0,0,0,3.88,1.31c2-.06,2.09.1,2.09,2C50.88,9.48,50.89,10.54,50.88,11.21Z"/>
    <g>
      <path d="M40.27,22.62v2.84H36a1.46,1.46,0,0,1,0-.2,5.2,5.2,0,0,0-.5-2.64h4.74Z"/>
      <path d="M55,25.47V22.62H44.9v2.84Z"/>
      <path d="M55,30.92v2.84H47.44V30.92Z"/>
      <path d="M42.81,30.92v2.84H34.48c.27-.93.51-1.87.72-2.84Z"/>
    </g>
    <g>
      <path d="M40.27,39.36V42.2H30.83c.55-.93,1-1.87,1.51-2.84Z"/>
      <path d="M55,42.21V39.36H44.9v2.85Z"/>
      <path d="M55,47.66V50.5H41.77V47.66Z"/>
      <path d="M27,50.51V47.66H37.14v2.85Z"/>
    </g>
    <polygon points="23.58 32.71 18.66 32.71 18.66 27.82 15.01 27.82 15.01 32.73 10.17 32.73 10.17 36.36 15.07 36.36 15.07 41.21 18.69 41.21 18.69 36.29 23.58 36.29 23.58 32.71"/>
    <path d="M16.87,52.33,16.25,52l-.12-.08h0C7.14,46,1.78,37.05.62,25.92c0-.2,0-.52-.07-.86a2.33,2.33,0,0,1,1.65-2.4c1.25-.38,7.11-2.52,12.18-4.4a7.15,7.15,0,0,1,5,0c5.07,1.88,10.93,4,12.18,4.4a2.33,2.33,0,0,1,1.66,2.41c0,.34,0,.66-.07.86C32,37.05,26.61,46,17.62,51.89h0l-.12.08ZM3,25c0,.27,0,.51.06.66C4.14,35.77,8.91,44,16.87,49.4c8-5.44,12.73-13.63,13.78-23.74,0-.15,0-.4.06-.66-1.87-.59-9.79-3.52-12.21-4.42a4.67,4.67,0,0,0-3.25,0C12.82,21.49,4.91,24.41,3,25Z"/>
  </g>
</svg>
