<?xml version="1.0" encoding="utf-8"?>
<!-- Generator: Adobe Illustrator 21.1.0, SVG Export Plug-In . SVG Version: 6.00 Build 0)  -->
<svg version="1.1" id="Layer_1" xmlns="http://www.w3.org/2000/svg" xmlns:xlink="http://www.w3.org/1999/xlink" x="0px" y="0px"
	 viewBox="0 0 100 94" style="enable-background:new 0 0 100 94;" xml:space="preserve">
<path d="M50,5.3c-24.9,0-45,20.1-45,45c0,15,7.3,28.2,18.5,36.4C27.1,75.5,37.6,67.5,50,67.5c12.4,0,22.9,8.1,26.5,19.2
	C87.7,78.5,95,65.3,95,50.3C95,25.5,74.9,5.3,50,5.3z M50,61c-9.5,0-17.1-7.7-17.1-17.1S40.5,26.7,50,26.7c9.5,0,17.1,7.7,17.1,17.1
	S59.5,61,50,61z"/>
</svg>
