<?xml version="1.0" encoding="utf-8"?>
<!-- Generator: Adobe Illustrator 21.1.0, SVG Export Plug-In . SVG Version: 6.00 Build 0)  -->
<svg version="1.1" id="Layer_1" xmlns="http://www.w3.org/2000/svg" xmlns:xlink="http://www.w3.org/1999/xlink" x="0px" y="0px"
	 viewBox="0 0 500 400" style="enable-background:new 0 0 500 400;" xml:space="preserve">
<style type="text/css">
	.st0{fill:#177090;stroke:#006699;stroke-miterlimit:10;}
	.st1{fill:#84BA40;}
</style>
<g>
	<path class="st0" d="M276,251.2c18.1,10.5,30.4,30.7,30.4,53.8c0,34-26.5,61.6-59.2,61.6S188,338.9,188,304.9
		c0-15.4,5.4-29.4,14.4-40.2c-14,12.9-22.8,31.3-22.8,51.8c0,38.9,31.5,70.4,70.4,70.4s70.4-31.5,70.4-70.4
		C320.4,286.9,302,261.5,276,251.2z"/>
	<path class="st1" d="M235.5,13c-2.9,0.5,7.3,29.5,0,72.7c-4.2,24.5-10.2,31.6-13.1,59.7c-1.1,10.7-1.3,20.7,0,45.7
		c2.1,39.6,6.7,92.5,9.3,92.3c2.5-0.1-6.3-47.5,6.5-111.9c7.4-37,14.6-42.8,15.9-71.8C256.3,51.6,239,12.4,235.5,13z"/>
	<path class="st1" d="M298,101.6c-0.5,0,2.7,18-3.7,42c-6.2,23.1-17.5,37.8-22.4,44.8c-36.6,53-23.4,134.2-22.4,134.3
		c0.5,0-1.1-22.8,9.3-53.2c10.4-30.2,21.8-36,32.6-58.8C316.3,158.8,298.8,101.6,298,101.6z"/>
</g>
</svg>
