<?xml version="1.0" encoding="utf-8"?>
<!-- Generator: Adobe Illustrator 21.1.0, SVG Export Plug-In . SVG Version: 6.00 Build 0)  -->
<svg version="1.1" id="Layer_1" xmlns="http://www.w3.org/2000/svg" xmlns:xlink="http://www.w3.org/1999/xlink" x="0px" y="0px"
	 viewBox="0 0 98 71" style="enable-background:new 0 0 98 71;" xml:space="preserve">
<style type="text/css">
	.st0{clip-path:url(#SVGID_2_);}
	.st1{clip-path:url(#SVGID_4_);fill:none;stroke:#000000;stroke-width:0.4762;stroke-miterlimit:10;}
	.st2{clip-path:url(#SVGID_6_);fill:none;stroke:#000000;stroke-width:1.9048;stroke-miterlimit:10;}
</style>
<g>
	<g>
		<defs>
			<rect id="SVGID_1_" x="4.2" y="8.7" width="90" height="55"/>
		</defs>
		<clipPath id="SVGID_2_">
			<use xlink:href="#SVGID_1_"  style="overflow:visible;"/>
		</clipPath>
		<path class="st0" d="M93.9,54.6c-3.8-10.1-6.5-18.7-8.4-25c-2.7-8.6-3.8-12.1-5.4-13.2c-0.5-0.4-1-0.7-1.6-1.1
			c-4.6-3.2-9.8-6.9-13.7-6.2c-4.4,0.7-10.9,2.6-15.5,4.1H7.8c-1.8,0-3.3,1.5-3.3,3.3v33.9c0,1.8,1.5,3.3,3.3,3.3h54.4
			c1.1,0,2.1-0.6,2.7-1.4c0.6,0.3,1.2,0.7,1.8,1c3.4,1.9,7.3,4.1,10.1,9.7c0.2,0.4,0.6,0.7,1.1,0.7c0.2,0,0.4,0,0.5-0.1
			c0.6-0.3,0.8-1,0.5-1.6c-3.1-6.2-7.6-8.7-11.1-10.7c-1.1-0.6-2.1-1.1-2.9-1.7c-2.3-1.6-3.3-3.7-4.3-5.8c-0.5-1-1-2-1.6-2.9
			c-1.1-1.7-4.8-5.6-8.4-9.4c-2.5-2.7-4.9-5.2-5.6-6.2c-0.4-0.6-0.3-1.6,0.4-2.2c0.9-0.9,2.7-1.3,5,0.3c0.6,0.4,1.9,1.4,3.7,2.7
			c4.6,3.4,11.5,8.6,15.8,11.2c0.6,0.3,1.3,0.2,1.6-0.4c0.3-0.6,0.2-1.3-0.4-1.6c-0.9-0.5-1.9-1.2-3-1.9c0.6-1.1,0.9-2.6,1.3-4.4
			c0.1-0.7,0.3-1.4,0.4-2.1c0.2-0.8,0.5-4-1.3-5.8c-0.6-0.6-1.5-1.1-3-1v-3.4c0-1.8-1.5-3.3-3.3-3.3h-4.6c2.7-0.7,5.4-1.4,7.6-1.7
			c3-0.5,8.2,3.2,12,5.8c0.6,0.4,1.1,0.8,1.6,1.1c1,0.7,2.6,5.9,4.5,12c1.9,6.3,4.6,14.9,8.5,25.1c0.2,0.5,0.6,0.8,1.1,0.8
			c0.1,0,0.3,0,0.4-0.1C93.9,55.9,94.2,55.2,93.9,54.6 M65.4,31v-8.8c0.8-0.1,1.1,0.1,1.3,0.3c0.8,0.8,0.8,2.9,0.7,3.6
			c-0.2,0.8-0.3,1.5-0.4,2.2c-0.3,1.4-0.5,2.7-0.9,3.5c-0.2-0.2-0.5-0.3-0.7-0.5C65.3,31.2,65.4,31.1,65.4,31 M62.1,15.5
			c0.5,0,0.9,0.4,0.9,0.9v13.2c-2.8-2-5.5-4.1-7.6-5.6c-1.8-1.4-3.1-2.3-3.7-2.8c-3.6-2.5-6.6-1.5-8.1,0c-1.5,1.5-1.7,3.8-0.6,5.3
			c0.8,1.1,3.1,3.6,5.8,6.4c1.9,2,4,4.2,5.6,6l4.6,6.9c0.9,1.7,2,3.5,3.9,5c-0.2,0.2-0.4,0.4-0.7,0.4H7.8c-0.5,0-0.9-0.4-0.9-0.9
			v-4.5v-6.9V16.4c0-0.5,0.4-0.9,0.9-0.9H62.1z"/>
	</g>
	<g>
		<defs>
			<rect id="SVGID_3_" x="4.2" y="8.7" width="90" height="55"/>
		</defs>
		<clipPath id="SVGID_4_">
			<use xlink:href="#SVGID_3_"  style="overflow:visible;"/>
		</clipPath>
		<path class="st1" d="M93.9,54.6c-3.8-10.1-6.5-18.7-8.4-25c-2.7-8.6-3.8-12.1-5.4-13.2c-0.5-0.4-1-0.7-1.6-1.1
			c-4.6-3.2-9.8-6.9-13.7-6.2c-4.4,0.7-10.9,2.6-15.5,4.1H7.8c-1.8,0-3.3,1.5-3.3,3.3v33.9c0,1.8,1.5,3.3,3.3,3.3h54.4
			c1.1,0,2.1-0.6,2.7-1.4c0.6,0.3,1.2,0.7,1.8,1c3.4,1.9,7.3,4.1,10.1,9.7c0.2,0.4,0.6,0.7,1.1,0.7c0.2,0,0.4,0,0.5-0.1
			c0.6-0.3,0.8-1,0.5-1.6c-3.1-6.2-7.6-8.7-11.1-10.7c-1.1-0.6-2.1-1.1-2.9-1.7c-2.3-1.6-3.3-3.7-4.3-5.8c-0.5-1-1-2-1.6-2.9
			c-1.1-1.7-4.8-5.6-8.4-9.4c-2.5-2.7-4.9-5.2-5.6-6.2c-0.4-0.6-0.3-1.6,0.4-2.2c0.9-0.9,2.7-1.3,5,0.3c0.6,0.4,1.9,1.4,3.7,2.7
			c4.6,3.4,11.5,8.6,15.8,11.2c0.6,0.3,1.3,0.2,1.6-0.4c0.3-0.6,0.2-1.3-0.4-1.6c-0.9-0.5-1.9-1.2-3-1.9c0.6-1.1,0.9-2.6,1.3-4.4
			c0.1-0.7,0.3-1.4,0.4-2.1c0.2-0.8,0.5-4-1.3-5.8c-0.6-0.6-1.5-1.1-3-1v-3.4c0-1.8-1.5-3.3-3.3-3.3h-4.6c2.7-0.7,5.4-1.4,7.6-1.7
			c3-0.5,8.2,3.2,12,5.8c0.6,0.4,1.1,0.8,1.6,1.1c1,0.7,2.6,5.9,4.5,12c1.9,6.3,4.6,14.9,8.5,25.1c0.2,0.5,0.6,0.8,1.1,0.8
			c0.1,0,0.3,0,0.4-0.1C93.9,55.9,94.2,55.2,93.9,54.6z M65.4,31v-8.8c0.8-0.1,1.1,0.1,1.3,0.3c0.8,0.8,0.8,2.9,0.7,3.6
			c-0.2,0.8-0.3,1.5-0.4,2.2c-0.3,1.4-0.5,2.7-0.9,3.5c-0.2-0.2-0.5-0.3-0.7-0.5C65.3,31.2,65.4,31.1,65.4,31z M62.1,15.5
			c0.5,0,0.9,0.4,0.9,0.9v13.2c-2.8-2-5.5-4.1-7.6-5.6c-1.8-1.4-3.1-2.3-3.7-2.8c-3.6-2.5-6.6-1.5-8.1,0c-1.5,1.5-1.7,3.8-0.6,5.3
			c0.8,1.1,3.1,3.6,5.8,6.4c1.9,2,4,4.2,5.6,6l4.6,6.9c0.9,1.7,2,3.5,3.9,5c-0.2,0.2-0.4,0.4-0.7,0.4H7.8c-0.5,0-0.9-0.4-0.9-0.9
			v-4.5v-6.9V16.4c0-0.5,0.4-0.9,0.9-0.9H62.1z"/>
	</g>
	<g>
		<defs>
			<rect id="SVGID_5_" x="4.2" y="8.7" width="90" height="55"/>
		</defs>
		<clipPath id="SVGID_6_">
			<use xlink:href="#SVGID_5_"  style="overflow:visible;"/>
		</clipPath>
		<path class="st2" d="M36.6,29.7h-7.2v-7.2c0-0.1-0.1-0.1-0.1-0.1h-7.3c-0.1,0-0.1,0.1-0.1,0.1v7.2h-7.2c-0.1,0-0.1,0.1-0.1,0.1
			v7.3c0,0.1,0.1,0.1,0.1,0.1h7.2v7.2c0,0.1,0.1,0.1,0.1,0.1h7.3c0.1,0,0.1-0.1,0.1-0.1v-7.2h7.2c0.1,0,0.1-0.1,0.1-0.1v-7.3
			C36.7,29.8,36.6,29.7,36.6,29.7z"/>
	</g>
</g>
</svg>
