<?xml version="1.0" encoding="utf-8"?>
<!-- Generator: Adobe Illustrator 21.1.0, SVG Export Plug-In . SVG Version: 6.00 Build 0)  -->
<svg version="1.1" id="Layer_1" xmlns="http://www.w3.org/2000/svg" xmlns:xlink="http://www.w3.org/1999/xlink" x="0px" y="0px"
	 viewBox="0 0 130 96.3" style="enable-background:new 0 0 130 96.3;" xml:space="preserve">
<polygon points="15,83.5 15,69.8 100.7,69.8 100.7,83.5 "/>
<rect x="103.2" y="69.6" width="4.6" height="13.9"/>
<path d="M114.9,67.3v-8.4c0-5-1.8-10-5.1-13.7c-3.6-4.1-8.6-6.3-14.2-6.3c0,0,0,0,0,0h-3.3c0.9-2.2,1.4-4.4,1.4-6.6
	c0-4.1-1.6-7.9-4.5-10.7c-2.9-2.8-6.9-4.3-11.3-4.4v4.6c6.5,0.1,11.2,4.5,11.2,10.5c0,2.4-1,5.2-2.6,7.5c-0.5,0.7-0.6,1.6-0.2,2.4
	c0.4,0.8,1.2,1.2,2,1.2h7.2c0,0,0,0,0,0c5.4,0,8.8,2.6,10.7,4.7c2.5,2.8,3.9,6.7,3.9,10.7v8.4C110.4,67.3,114.9,67.3,114.9,67.3z"/>
<rect x="110.4" y="69.6" width="4.6" height="13.9"/>
<path d="M95.6,49.8C95.5,49.8,95.5,49.8,95.6,49.8c-0.1,0-3.1,0-6.2,0c-1.5,0-3.1,0-4.2,0c-0.6,0-1.1,0-1.4,0c-0.2,0-0.3,0-0.5,0v0
	c-2.8,0-4.3-1.6-5-2.9c-1.3-2.3-1.3-5.4,0-7.6c0.4-0.7,0.4-1.6,0-2.4c-0.4-0.7-1.3-1.1-2.1-1.1c-3.5,0.2-6.4-0.7-8.5-2.7
	c-1.8-1.7-2.9-4.1-2.9-6.5c0-3.2,1.9-9.1,8.8-9.3v-4.6c-5.3,0.1-8.5,2.7-10.2,4.8c-2,2.5-3.2,5.8-3.2,9.2c0,3.7,1.6,7.3,4.3,9.9
	c1.7,1.6,4.4,3.4,8.5,3.8c-0.6,2.9-0.2,6.2,1.3,8.8c1.9,3.3,5.2,5.2,9,5.2c0,0,0.1,0,0.1,0c0.7,0,7.6,0,12.2,0
	c2.7,0,4.8,0.7,6.1,1.9c1.1,1.1,1.7,2.7,1.7,4.6v6.3h4.6V61c0-3.2-1-5.9-3-7.9C102.6,51,99.5,49.8,95.6,49.8z M85,53.5
	c-0.1,0.1-0.1,0.2-0.2,0.2C84.9,53.7,85,53.6,85,53.5z"/>
</svg>
